<svg width="17" height="16" viewBox="0 0 17 16" fill="none" xmlns="http://www.w3.org/2000/svg">
<path d="M12.9502 9.90911C12.753 10.1003 12.6623 10.3767 12.7073 10.6479L13.3843 14.395C13.4415 14.7126 13.3074 15.034 13.0416 15.2176C12.7811 15.408 12.4346 15.4308 12.1505 15.2785L8.77735 13.5192C8.66006 13.4567 8.52983 13.4232 8.39655 13.4194H8.19015C8.11856 13.4301 8.04849 13.4529 7.98452 13.488L4.61058 15.2557C4.44379 15.3394 4.25491 15.3691 4.06984 15.3394C3.61896 15.2541 3.31813 14.8246 3.392 14.3714L4.06984 10.6243C4.11477 10.3509 4.02414 10.0729 3.82688 9.87865L1.07671 7.21299C0.846702 6.98983 0.766733 6.65472 0.871835 6.35236C0.973891 6.05076 1.23436 5.83065 1.54891 5.78115L5.33411 5.23202C5.622 5.20232 5.87485 5.02715 6.00433 4.7682L7.67225 1.34854C7.71186 1.27238 7.76289 1.20231 7.82458 1.1429L7.89312 1.08959C7.92892 1.04998 7.97004 1.01723 8.01574 0.990577L8.09876 0.960113L8.22823 0.906799H8.54887C8.83523 0.936502 9.08733 1.10787 9.21909 1.36377L10.9091 4.7682C11.031 5.01725 11.2678 5.19013 11.5412 5.23202L15.3264 5.78115C15.6463 5.82685 15.9136 6.04771 16.0195 6.35236C16.1193 6.65777 16.0332 6.99288 15.7986 7.21299L12.9502 9.90911Z" fill="#F6B76F"/>
</svg>
